<?xml version="1.0" encoding="UTF-8" standalone="no"?>
<!DOCTYPE svg PUBLIC "-//W3C//DTD SVG 1.1//EN" "http://www.w3.org/Graphics/SVG/1.1/DTD/svg11.dtd">
<svg width="100%" height="100%" viewBox="0 0 128 128" version="1.1" xmlns="http://www.w3.org/2000/svg" xmlns:xlink="http://www.w3.org/1999/xlink" xml:space="preserve" xmlns:serif="http://www.serif.com/" style="fill-rule:evenodd;clip-rule:evenodd;stroke-linecap:round;stroke-linejoin:round;stroke-miterlimit:1.5;">
    <rect id="画板1" x="0" y="0" width="128" height="128" style="fill:none;"/>
    <g id="画板11" serif:id="画板1">
        <g>
            <clipPath id="_clip1">
                <path d="M116,38L116,90C116,104.35 104.35,116 90,116L38,116C23.65,116 12,104.35 12,90L12,38C12,23.65 23.65,12 38,12L90,12C104.35,12 116,23.65 116,38Z"/>
            </clipPath>
            <g clip-path="url(#_clip1)">
                <path d="M116,38L116,90C116,104.35 104.35,116 90,116L38,116C23.65,116 12,104.35 12,90L12,38C12,23.65 23.65,12 38,12L90,12C104.35,12 116,23.65 116,38Z" style="fill:rgb(242,242,242);"/>
                <g transform="matrix(1.017033,0,0,1.017033,-1.975794,4.196758)">
                    <rect x="58.88" y="7.673" width="57.12" height="57.12" style="fill:rgb(234,56,52);"/>
                </g>
                <g transform="matrix(1.083542,0,0,1.083542,-1.002502,-9.690849)">
                    <rect x="12" y="73.633" width="42.367" height="42.367" style="fill:rgb(45,129,201);"/>
                </g>
                <g transform="matrix(1,0,0,1,10.259129,0)">
                    <rect x="84.557" y="94.816" width="21.184" height="21.184" style="fill:rgb(253,208,57);"/>
                </g>
                <path d="M94.816,116L94.816,70.093" style="fill:none;stroke:rgb(18,18,18);stroke-width:4.17px;"/>
                <path d="M116,94.816L94.816,94.816" style="fill:none;stroke:rgb(18,18,18);stroke-width:4.17px;"/>
                <path d="M57.907,12L57.907,116" style="fill:none;stroke:rgb(18,18,18);stroke-width:4.17px;"/>
                <path d="M12,70.093L116,70.093" style="fill:none;stroke:rgb(18,18,18);stroke-width:4.17px;"/>
            </g>
        </g>
        <path d="M116,38L116,90C116,104.35 104.35,116 90,116L38,116C23.65,116 12,104.35 12,90L12,38C12,23.65 23.65,12 38,12L90,12C104.35,12 116,23.65 116,38Z" style="fill:none;stroke:black;stroke-width:4.17px;"/>
    </g>
</svg>
