<svg viewBox="0 0 24 24" xmlns="http://www.w3.org/2000/svg" width="24.000000" height="24.000000" fill="none">
	<rect id="Icon/effect" width="24.000000" height="24.000000" x="0.000000" y="0.000000" />
	<path id="effect-frame" d="M5 4L19 4C20.1046 4 21 4.89543 21 6L21 18C21 19.1046 20.1046 20 19 20L5 20C3.89543 20 3 19.1046 3 18L3 6C3 4.89543 3.89543 4 5 4Z" stroke="rgb(0,0,0)" stroke-linecap="round" stroke-linejoin="round" stroke-width="2.000000" />
	<path id="effect-wave-a" d="M6.5 14.5C8 11.5 9.5 11.5 11 14.5C12.5 17.5 14 17.5 15.5 14.5C16.2 13.1 16.9 12.35 17.5 12" stroke="rgb(0,0,0)" stroke-linecap="round" stroke-linejoin="round" stroke-width="2.000000" />
	<path id="effect-wave-b" d="M6.5 9.5C8 12.5 9.5 12.5 11 9.5C12.5 6.5 14 6.5 15.5 9.5C16.2 10.9 16.9 11.65 17.5 12" stroke="rgb(0,0,0)" stroke-linecap="round" stroke-linejoin="round" stroke-width="2.000000" />
</svg>
