<svg width="24" height="24" viewBox="0 0 24 24" fill="none" xmlns="http://www.w3.org/2000/svg">
<g clip-path="url(#clip0_1_6)">
<path d="M18.9748 4.00014C19.3287 3.99567 19.6774 4.0852 19.9854 4.25958C20.2934 4.43396 20.5496 4.68695 20.7278 4.99272C20.9061 5.29848 21 5.64607 21 6V18C21 18.3539 20.9061 18.7015 20.7278 19.0073C20.5496 19.313 20.2934 19.566 19.9854 19.7404C19.6774 19.9148 19.3287 20.0043 18.9748 19.9999C18.6209 19.9954 18.2745 19.8971 17.971 19.715L7.974 13.717C7.67723 13.5397 7.43149 13.2885 7.26075 12.9879C7.09001 12.6873 7.0001 12.3476 6.9998 12.0018C6.9995 11.6561 7.08881 11.3163 7.25902 11.0154C7.42924 10.7145 7.67454 10.4628 7.971 10.285L17.971 4.285C18.2745 4.1029 18.6209 4.00461 18.9748 4.00014Z" fill="black" stroke="black" stroke-width="2" stroke-linecap="round" stroke-linejoin="round"/>
<path d="M3 20V4" stroke="black" stroke-width="2" stroke-linecap="round" stroke-linejoin="round"/>
</g>
<defs>
<clipPath id="clip0_1_6">
<rect width="24" height="24" fill="white"/>
</clipPath>
</defs>
</svg>
